<svg version="1.1" id="Layer_1" xmlns="http://www.w3.org/2000/svg" xmlns:xlink="http://www.w3.org/1999/xlink" x="0px" y="0px"
	 width="100%" viewBox="0 0 542 217" enable-background="new 0 0 542 217" xml:space="preserve">
<path fill="#FEFEFE" opacity="1.000000" stroke="none" 
	d="
M333.000000,218.000000 
	C222.000000,218.000000 111.500000,218.000000 1.000000,218.000000 
	C1.000000,145.666672 1.000000,73.333336 1.000000,1.000000 
	C181.666672,1.000000 362.333344,1.000000 543.000000,1.000000 
	C543.000000,73.333336 543.000000,145.666672 543.000000,218.000000 
	C473.166656,218.000000 403.333344,218.000000 333.000000,218.000000 
M405.412720,151.008865 
	C412.075439,149.744858 419.012665,149.262665 425.339294,147.041412 
	C435.965881,143.310516 441.420990,135.020721 441.791077,123.753685 
	C442.153137,112.730736 437.679779,104.292267 427.253510,99.872223 
	C422.395538,97.812775 417.248993,96.376518 412.149811,94.957733 
	C405.287903,93.048500 398.262634,91.694138 391.471954,89.574707 
	C388.017578,88.496582 385.700806,85.819801 385.806732,81.647339 
	C385.917419,77.288666 388.038849,74.537598 391.881500,72.779327 
	C404.502228,67.004433 415.736877,72.601433 418.628296,86.145805 
	C418.760071,86.763107 418.945068,87.369041 419.211212,88.384453 
	C425.826233,87.337234 432.288879,86.314140 439.007111,85.250587 
	C438.149994,81.189301 437.423737,77.748085 436.713043,74.380684 
	C443.272827,74.380684 449.368195,74.380684 455.817017,74.380684 
	C455.817017,99.461678 455.817017,124.241982 455.817017,149.172241 
	C462.586761,149.172241 468.990601,149.172241 475.762329,149.172241 
	C475.762329,124.071770 475.762329,99.303345 475.762329,74.013603 
	C485.679138,74.013603 495.233002,74.013603 504.760193,74.013603 
	C504.760193,68.226387 504.760193,62.967861 504.760193,57.505234 
	C478.746368,57.505234 452.975708,57.505234 427.025360,57.505234 
	C426.653473,58.845680 426.288361,60.161621 425.869720,61.670509 
	C416.044250,55.986988 405.631287,55.102627 395.070312,56.225590 
	C384.281891,57.372749 374.644592,61.227280 368.290405,71.093597 
	C362.566711,61.438210 353.542114,58.452309 343.833801,58.085339 
	C325.528961,57.393421 307.192352,57.571743 288.871735,57.235565 
	C285.929993,57.181587 285.401001,58.625809 284.802765,61.004261 
	C279.534698,81.948326 274.132843,102.858757 268.758179,123.775955 
	C268.385132,125.227692 267.912598,126.653862 267.268799,128.825577 
	C260.937683,104.382858 254.881409,81.001259 248.823669,57.614014 
	C237.975723,57.614014 227.567276,57.614014 217.225357,57.614014 
	C217.225357,88.348526 217.225357,118.763016 217.225357,149.256882 
	C223.302994,149.256882 229.075668,149.256882 235.096497,149.256882 
	C235.096497,123.981964 235.096497,98.955040 235.096497,73.928108 
	C235.287262,73.899147 235.478027,73.870178 235.668793,73.841217 
	C242.454544,99.075859 249.240295,124.310501 255.978149,149.367035 
	C263.592407,149.367035 270.573761,149.367035 277.866119,149.367035 
	C284.365509,125.553444 290.852020,101.787033 297.338501,78.020615 
	C297.719696,78.066666 298.100861,78.112717 298.482056,78.158760 
	C298.482056,101.809837 298.482056,125.460907 298.482056,149.099869 
	C314.402039,149.099869 329.699127,149.329819 344.985016,149.015350 
	C354.458221,148.820465 363.455444,146.641739 370.077332,138.763733 
	C379.667145,148.654999 391.561493,151.273804 405.412720,151.008865 
M26.557131,89.203049 
	C26.280474,90.331764 25.998692,91.459244 25.727917,92.589371 
	C20.864563,112.887222 30.420361,134.086365 49.227852,144.725906 
	C66.545418,154.522583 89.530884,151.472733 104.312218,137.343155 
	C90.039345,114.590668 90.469749,91.969414 105.378128,69.709030 
	C80.150978,44.466152 38.672840,54.459389 26.557131,89.203049 
M186.065445,74.462250 
	C183.029221,71.192429 179.992981,67.922615 176.248474,63.890034 
	C170.863007,69.427200 166.059540,74.365974 160.833221,79.739494 
	C160.833221,72.454285 160.833221,65.565102 160.833221,58.635880 
	C153.966797,58.635880 147.576828,58.635880 140.745209,58.635880 
	C140.745209,65.841721 140.745209,72.713699 140.745209,80.911240 
	C135.053482,75.020279 130.242004,70.040382 126.104660,65.758224 
	C121.311005,70.320625 116.668045,74.739594 111.449234,79.706642 
	C116.335335,84.242805 121.297615,88.849686 127.359245,94.477188 
	C118.957207,94.477188 112.098015,94.477188 105.288002,94.477188 
	C105.288002,101.440292 105.288002,107.826340 105.288002,114.589958 
	C112.376099,114.589958 119.105057,114.589958 125.834015,114.589958 
	C126.177116,115.064651 126.520218,115.539352 126.863319,116.014046 
	C121.685936,120.559364 116.508545,125.104691 111.594749,129.418594 
	C116.653191,134.620560 121.054680,139.146912 126.092545,144.327698 
	C130.878693,139.277176 135.626694,134.266891 141.037430,128.557266 
	C141.037430,136.319519 141.037430,143.204697 141.037430,149.947479 
	C147.910782,149.947479 154.296722,149.947479 161.087769,149.947479 
	C161.087769,142.882309 161.087769,136.163406 161.087769,128.345642 
	C166.564621,134.152573 171.301193,139.174606 175.446167,143.569412 
	C180.674988,138.646881 185.356155,134.239944 191.452408,128.500824 
	C186.373978,123.737640 181.416367,119.087784 176.191101,114.186890 
	C183.166870,114.186890 189.912903,114.186890 196.694534,114.186890 
	C196.694534,107.435127 196.694534,101.038658 196.694534,94.281921 
	C189.627396,94.281921 182.865097,94.281921 176.102798,94.281921 
	C175.825546,93.883881 175.548294,93.485840 175.271057,93.087799 
	C180.409180,88.471947 185.547318,83.856087 191.096405,78.871063 
	C189.096466,77.141914 187.836166,76.052254 186.065445,74.462250 
z"/>
<path fill="#030303" opacity="1.000000" stroke="none" 
	d="
M404.931152,151.024368 
	C391.561493,151.273804 379.667145,148.654999 370.077332,138.763733 
	C363.455444,146.641739 354.458221,148.820465 344.985016,149.015350 
	C329.699127,149.329819 314.402039,149.099869 298.482056,149.099869 
	C298.482056,125.460907 298.482056,101.809837 298.482056,78.158760 
	C298.100861,78.112717 297.719696,78.066666 297.338501,78.020615 
	C290.852020,101.787033 284.365509,125.553444 277.866119,149.367035 
	C270.573761,149.367035 263.592407,149.367035 255.978149,149.367035 
	C249.240295,124.310501 242.454544,99.075859 235.668793,73.841217 
	C235.478027,73.870178 235.287262,73.899147 235.096497,73.928108 
	C235.096497,98.955040 235.096497,123.981964 235.096497,149.256882 
	C229.075668,149.256882 223.302994,149.256882 217.225357,149.256882 
	C217.225357,118.763016 217.225357,88.348526 217.225357,57.614014 
	C227.567276,57.614014 237.975723,57.614014 248.823669,57.614014 
	C254.881409,81.001259 260.937683,104.382858 267.268799,128.825577 
	C267.912598,126.653862 268.385132,125.227692 268.758179,123.775955 
	C274.132843,102.858757 279.534698,81.948326 284.802765,61.004261 
	C285.401001,58.625809 285.929993,57.181587 288.871735,57.235565 
	C307.192352,57.571743 325.528961,57.393421 343.833801,58.085339 
	C353.542114,58.452309 362.566711,61.438210 368.290405,71.093597 
	C374.644592,61.227280 384.281891,57.372749 395.070312,56.225590 
	C405.631287,55.102627 416.044250,55.986988 425.869720,61.670509 
	C426.288361,60.161621 426.653473,58.845680 427.025360,57.505234 
	C452.975708,57.505234 478.746368,57.505234 504.760193,57.505234 
	C504.760193,62.967861 504.760193,68.226387 504.760193,74.013603 
	C495.233002,74.013603 485.679138,74.013603 475.762329,74.013603 
	C475.762329,99.303345 475.762329,124.071770 475.762329,149.172241 
	C468.990601,149.172241 462.586761,149.172241 455.817017,149.172241 
	C455.817017,124.241982 455.817017,99.461678 455.817017,74.380684 
	C449.368195,74.380684 443.272827,74.380684 436.713043,74.380684 
	C437.423737,77.748085 438.149994,81.189301 439.007111,85.250587 
	C432.288879,86.314140 425.826233,87.337234 419.211212,88.384453 
	C418.945068,87.369041 418.760071,86.763107 418.628296,86.145805 
	C415.736877,72.601433 404.502228,67.004433 391.881500,72.779327 
	C388.038849,74.537598 385.917419,77.288666 385.806732,81.647339 
	C385.700806,85.819801 388.017578,88.496582 391.471954,89.574707 
	C398.262634,91.694138 405.287903,93.048500 412.149811,94.957733 
	C417.248993,96.376518 422.395538,97.812775 427.253510,99.872223 
	C437.679779,104.292267 442.153137,112.730736 441.791077,123.753685 
	C441.420990,135.020721 435.965881,143.310516 425.339294,147.041412 
	C419.012665,149.262665 412.075439,149.744858 404.931152,151.024368 
M373.632111,100.920868 
	C371.577576,98.650269 369.523041,96.379669 367.729584,94.397575 
	C364.640808,97.147842 361.694336,99.771439 358.601990,102.524887 
	C365.837494,105.411232 371.153107,110.213013 373.361908,117.778259 
	C376.839905,117.458549 379.929138,117.174576 382.885803,116.902786 
	C383.553406,119.802132 383.847351,122.322311 384.712769,124.627983 
	C389.146393,136.440079 409.951874,140.287979 418.632507,130.973373 
	C423.758606,125.472870 422.035553,117.372459 414.986145,114.873940 
	C411.258636,113.552818 407.306946,112.843094 403.432892,111.960716 
	C393.249725,109.641357 382.843628,107.954094 373.632111,100.920868 
M323.712036,110.158562 
	C322.092712,110.158562 320.473389,110.158562 318.579071,110.158562 
	C318.579071,118.324913 318.579071,126.025436 318.579071,133.439606 
	C327.487396,133.439606 336.141479,133.967392 344.697449,133.277802 
	C351.946991,132.693512 354.584900,128.881012 354.391479,121.952332 
	C354.204712,115.260063 351.078400,111.598396 344.063934,110.934731 
	C337.630096,110.325996 331.132568,110.390617 323.712036,110.158562 
M343.274170,73.837624 
	C335.063385,73.446335 326.852631,73.055038 318.524078,72.658134 
	C318.524078,80.509697 318.524078,87.421570 318.524078,94.307884 
	C326.349609,94.307884 333.963379,94.713997 341.510956,94.181595 
	C347.741791,93.742081 350.250641,90.924530 350.875031,85.754189 
	C351.573944,79.967087 349.639740,76.619484 343.274170,73.837624 
z"/>
<path fill="#010101" opacity="1.000000" stroke="none" 
	d="
M26.696886,88.825546 
	C38.672840,54.459389 80.150978,44.466152 105.378128,69.709030 
	C90.469749,91.969414 90.039345,114.590668 104.312218,137.343155 
	C89.530884,151.472733 66.545418,154.522583 49.227852,144.725906 
	C30.420361,134.086365 20.864563,112.887222 25.727917,92.589371 
	C25.998692,91.459244 26.280474,90.331764 26.696886,88.825546 
z"/>
<path fill="#020202" opacity="1.000000" stroke="none" 
	d="
M186.320663,74.712418 
	C187.836166,76.052254 189.096466,77.141914 191.096405,78.871063 
	C185.547318,83.856087 180.409180,88.471947 175.271057,93.087799 
	C175.548294,93.485840 175.825546,93.883881 176.102798,94.281921 
	C182.865097,94.281921 189.627396,94.281921 196.694534,94.281921 
	C196.694534,101.038658 196.694534,107.435127 196.694534,114.186890 
	C189.912903,114.186890 183.166870,114.186890 176.191101,114.186890 
	C181.416367,119.087784 186.373978,123.737640 191.452408,128.500824 
	C185.356155,134.239944 180.674988,138.646881 175.446167,143.569412 
	C171.301193,139.174606 166.564621,134.152573 161.087769,128.345642 
	C161.087769,136.163406 161.087769,142.882309 161.087769,149.947479 
	C154.296722,149.947479 147.910782,149.947479 141.037430,149.947479 
	C141.037430,143.204697 141.037430,136.319519 141.037430,128.557266 
	C135.626694,134.266891 130.878693,139.277176 126.092545,144.327698 
	C121.054680,139.146912 116.653191,134.620560 111.594749,129.418594 
	C116.508545,125.104691 121.685936,120.559364 126.863319,116.014046 
	C126.520218,115.539352 126.177116,115.064651 125.834015,114.589958 
	C119.105057,114.589958 112.376099,114.589958 105.288002,114.589958 
	C105.288002,107.826340 105.288002,101.440292 105.288002,94.477188 
	C112.098015,94.477188 118.957207,94.477188 127.359245,94.477188 
	C121.297615,88.849686 116.335335,84.242805 111.449234,79.706642 
	C116.668045,74.739594 121.311005,70.320625 126.104660,65.758224 
	C130.242004,70.040382 135.053482,75.020279 140.745209,80.911240 
	C140.745209,72.713699 140.745209,65.841721 140.745209,58.635880 
	C147.576828,58.635880 153.966797,58.635880 160.833221,58.635880 
	C160.833221,65.565102 160.833221,72.454285 160.833221,79.739494 
	C166.059540,74.365974 170.863007,69.427200 176.248474,63.890034 
	C179.992981,67.922615 183.029221,71.192429 186.320663,74.712418 
z"/>
<path fill="#FAFAFA" opacity="1.000000" stroke="none" 
	d="
M373.940613,101.108185 
	C382.843628,107.954094 393.249725,109.641357 403.432892,111.960716 
	C407.306946,112.843094 411.258636,113.552818 414.986145,114.873940 
	C422.035553,117.372459 423.758606,125.472870 418.632507,130.973373 
	C409.951874,140.287979 389.146393,136.440079 384.712769,124.627983 
	C383.847351,122.322311 383.553406,119.802132 382.885803,116.902786 
	C379.929138,117.174576 376.839905,117.458549 373.361908,117.778259 
	C371.153107,110.213013 365.837494,105.411232 358.601990,102.524887 
	C361.694336,99.771439 364.640808,97.147842 367.729584,94.397575 
	C369.523041,96.379669 371.577576,98.650269 373.940613,101.108185 
z"/>
<path fill="#F8F8F8" opacity="1.000000" stroke="none" 
	d="
M324.187561,110.158562 
	C331.132568,110.390617 337.630096,110.325996 344.063934,110.934731 
	C351.078400,111.598396 354.204712,115.260063 354.391479,121.952332 
	C354.584900,128.881012 351.946991,132.693512 344.697449,133.277802 
	C336.141479,133.967392 327.487396,133.439606 318.579071,133.439606 
	C318.579071,126.025436 318.579071,118.324913 318.579071,110.158562 
	C320.473389,110.158562 322.092712,110.158562 324.187561,110.158562 
z"/>
<path fill="#F8F8F8" opacity="1.000000" stroke="none" 
	d="
M343.677399,73.916229 
	C349.639740,76.619484 351.573944,79.967087 350.875031,85.754189 
	C350.250641,90.924530 347.741791,93.742081 341.510956,94.181595 
	C333.963379,94.713997 326.349609,94.307884 318.524078,94.307884 
	C318.524078,87.421570 318.524078,80.509697 318.524078,72.658134 
	C326.852631,73.055038 335.063385,73.446335 343.677399,73.916229 
z"/>
</svg>